<?xml version="1.0" encoding="UTF-8"?>
<svg xmlns="http://www.w3.org/2000/svg" version="1.1" viewBox="0 0 70.19 81.98">
  <defs>
    <style>
      .cls-1 {
        fill: #23a96a;
      }

      .cls-2 {
        fill: #075033;
      }

      .cls-3 {
        fill: #fff;
      }
    </style>
  </defs>
  <!-- Generator: Adobe Illustrator 28.6.0, SVG Export Plug-In . SVG Version: 1.2.0 Build 558)  -->
  <g>
    <g id="Logo">
      <g>
        <g>
          <path class="cls-1" d="M35.09,0c-1.64,0-3.24.15-4.79.41l-5.55,16.13h28.03c.32,0,.54.28.43.58l-13.39,38.91c13.34-2.25,23.5-13.84,23.5-27.82C63.31,12.63,50.68,0,35.09,0"/>
          <path class="cls-3" d="M24.74,16.55l-7.84,22.76c-.1.3.12.61.44.61h28.02s7.85-22.79,7.85-22.79c.1-.3-.12-.58-.43-.58h-28.03Z"/>
          <path class="cls-2" d="M16.91,39.31L30.3.41C17.03,2.72,6.87,14.29,6.87,28.22c0,15.58,12.63,28.22,28.22,28.22,1.61,0,3.19-.14,4.72-.4l5.55-16.12h-28.02c-.32,0-.54-.31-.44-.61"/>
        </g>
        <path class="cls-2" d="M62.65,75.33c.24-1.21,1.19-2,2.4-2s2.12.81,2.29,2h-4.68ZM65.18,81.98c1.94,0,3.57-.8,4.42-2.21l-2.3-1.26c-.48.67-1.24.98-2.08.98-1.38,0-2.32-.84-2.57-2.01h7.44c.06-.32.1-.73.1-1.15,0-3.18-2.19-5.47-5.2-5.47s-5.27,2.24-5.27,5.55,2.05,5.59,5.46,5.59M54.84,81.69h2.94v-15.33h-2.94v15.33ZM53.35,81.44l-.85-2.47c-.35.16-.76.25-1.15.25-.92,0-1.53-.48-1.53-1.6v-3.8h2.56l.95-2.68h-2.79l-.72,2.03v-4.7h-2.94v9.71c0,2.32,1.36,3.8,3.82,3.8.97,0,1.92-.19,2.65-.54M41.62,75.89v5.8h2.94v-6.31c0-3.08-1.8-4.53-4.15-4.53-1.14,0-2.17.38-3.04,1.16v-5.64h-2.94v15.33h2.94v-7.19c.6-.53,1.36-.82,2.25-.82,1.27,0,1.99.75,1.99,2.22M29.98,81.98c1.02,0,1.98-.25,2.79-.71l-1.06-2.6c-.46.34-1.03.53-1.65.53-1.55,0-2.71-1.16-2.71-2.79s1.11-2.79,2.68-2.79c.63,0,1.19.19,1.64.53l1.08-2.6c-.81-.46-1.77-.72-2.79-.72-3.18,0-5.59,2.42-5.59,5.58s2.42,5.57,5.6,5.57M15.37,75.33c.24-1.21,1.19-2,2.4-2s2.12.81,2.29,2h-4.68ZM17.9,81.98c1.94,0,3.57-.8,4.42-2.21l-2.3-1.26c-.48.67-1.24.98-2.08.98-1.38,0-2.32-.84-2.57-2.01h7.44c.06-.32.1-.73.1-1.15,0-3.18-2.19-5.47-5.2-5.47s-5.27,2.24-5.27,5.55,2.05,5.59,5.46,5.59M2.94,78.21v-3.61c.62-.61,1.42-.95,2.37-.95,1.61,0,2.61.98,2.61,2.75s-1,2.76-2.61,2.76c-.95,0-1.74-.34-2.37-.95M6.14,81.97c2.89,0,4.74-2.36,4.74-5.57s-1.85-5.56-4.74-5.56c-1.23,0-2.3.42-3.2,1.27v-5.76H0v15.33h2.2l.44-1.29c.96,1.05,2.14,1.57,3.5,1.57"/>
      </g>
    </g>
  </g>
</svg>