<?xml version="1.0" encoding="UTF-8"?>
<svg xmlns="http://www.w3.org/2000/svg" version="1.1" viewBox="0 0 283.46 56.44">
  <defs>
    <style>
      .cls-1 {
        fill: #fff;
      }
    </style>
  </defs>
  <!-- Generator: Adobe Illustrator 28.6.0, SVG Export Plug-In . SVG Version: 1.2.0 Build 558)  -->
  <g>
    <g id="Logo">
      <g>
        <path class="cls-1" d="M262.11,31.91c.68-3.42,3.36-5.67,6.78-5.67s6,2.31,6.49,5.67h-13.27ZM269.27,50.74c5.48,0,10.12-2.28,12.51-6.27l-6.51-3.58c-1.36,1.9-3.5,2.77-5.89,2.77-3.91,0-6.57-2.39-7.27-5.7h21.08c.16-.9.27-2.06.27-3.26,0-9.01-6.21-15.49-14.73-15.49s-14.92,6.35-14.92,15.71,5.81,15.82,15.47,15.82M239.99,49.93h8.33V6.51h-8.33v43.42ZM235.79,49.23l-2.42-7c-1,.46-2.14.71-3.26.71-2.61,0-4.34-1.36-4.34-4.53v-10.77h7.25l2.69-7.6h-7.9l-2.04,5.75v-13.32h-8.33v27.51c0,6.57,3.85,10.77,10.83,10.77,2.74,0,5.43-.54,7.52-1.52M202.55,33.51v16.42h8.33v-17.88c0-8.71-5.1-12.84-11.75-12.84-3.23,0-6.13,1.09-8.6,3.28V6.51h-8.33v43.42h8.33v-20.38c1.71-1.49,3.85-2.33,6.38-2.33,3.61,0,5.64,2.12,5.64,6.3M169.58,50.74c2.88,0,5.62-.71,7.9-2.01l-3.01-7.35c-1.3.98-2.93,1.49-4.67,1.49-4.4,0-7.68-3.28-7.68-7.9s3.15-7.9,7.6-7.9c1.79,0,3.36.54,4.64,1.49l3.07-7.35c-2.31-1.3-5.02-2.04-7.9-2.04-9.01,0-15.82,6.87-15.82,15.79s6.87,15.77,15.87,15.77M128.19,31.91c.68-3.42,3.36-5.67,6.78-5.67s6,2.31,6.49,5.67h-13.27ZM135.36,50.74c5.48,0,10.12-2.28,12.51-6.27l-6.51-3.58c-1.36,1.9-3.5,2.77-5.89,2.77-3.91,0-6.57-2.39-7.27-5.7h21.08c.16-.9.27-2.06.27-3.26,0-9.01-6.21-15.49-14.73-15.49s-14.92,6.35-14.92,15.71,5.81,15.82,15.47,15.82M93,40.08v-10.23c1.76-1.74,4.02-2.69,6.7-2.69,4.56,0,7.38,2.77,7.38,7.79s-2.82,7.82-7.38,7.82c-2.69,0-4.94-.95-6.7-2.69M102.06,50.72c8.2,0,13.43-6.68,13.43-15.77s-5.24-15.74-13.43-15.74c-3.47,0-6.51,1.19-9.06,3.61V6.51h-8.33v43.42h6.24l1.25-3.66c2.71,2.98,6.05,4.45,9.9,4.45"/>
        <g>
          <path class="cls-1" d="M28.21,0c-1.2,0-2.38.08-3.54.23l-5.61,16.32,26.81-.03c.16,0,.29.08.37.19.08.12.11.27.06.42l-.18.52-13.2,38.38c13.32-2.25,23.47-13.84,23.47-27.81C56.4,12.64,43.78,0,28.21,0Z"/>
          <path class="cls-1" d="M28.15,56.44c1.2,0,2.38-.08,3.54-.23l5.61-16.32-26.81.03c-.16,0-.29-.08-.37-.19-.08-.12-.11-.27-.06-.42l.18-.52L23.44.42C10.12,2.67-.04,14.26-.04,28.23c0,15.58,12.62,28.21,28.19,28.21Z"/>
        </g>
      </g>
    </g>
  </g>
</svg>